<?xml version="1.0" encoding="UTF-8"?>
<svg width="78" height="71" viewBox="0 0 78 71" fill="none" xmlns="http://www.w3.org/2000/svg">
    <path d="M39 0C17.4609 0 0 15.9219 0 35.5C0 55.0781 17.4609 71 39 71C60.5391 71 78 55.0781 78 35.5C78 15.9219 60.5391 0 39 0ZM39 65.25C20.4609 65.25 5.4375 52.0156 5.4375 35.5C5.4375 18.9844 20.4609 5.75 39 5.75C57.5391 5.75 72.5625 18.9844 72.5625 35.5C72.5625 52.0156 57.5391 65.25 39 65.25Z" fill="white"/>
    <path d="M39 0C17.4609 0 0 15.9219 0 35.5C0 55.0781 17.4609 71 39 71C60.5391 71 78 55.0781 78 35.5C78 15.9219 60.5391 0 39 0ZM39 65.25C20.4609 65.25 5.4375 52.0156 5.4375 35.5C5.4375 18.9844 20.4609 5.75 39 5.75C57.5391 5.75 72.5625 18.9844 72.5625 35.5C72.5625 52.0156 57.5391 65.25 39 65.25Z" stroke="white" stroke-width="1.33333"/>
</svg> 